<?xml version="1.0" standalone="no"?>
<!DOCTYPE svg PUBLIC "-//W3C//DTD SVG 20010904//EN"
 "http://www.w3.org/TR/2001/REC-SVG-20010904/DTD/svg10.dtd">
<svg version="1.0" xmlns="http://www.w3.org/2000/svg"
 width="1024.000000pt" height="1024.000000pt" viewBox="0 0 1024.000000 1024.000000"
 preserveAspectRatio="xMidYMid meet">
<metadata>
Created by potrace 1.14, written by Peter Selinger 2001-2017
</metadata>
<g transform="translate(0.000000,1024.000000) scale(0.100000,-0.100000)"
fill="#000000" stroke="none">
<path d="M4808 9985 c-2 -2 -44 -6 -93 -10 -50 -3 -112 -8 -140 -11 -27 -3
-63 -7 -80 -8 -154 -14 -593 -102 -703 -140 -23 -9 -46 -15 -50 -16 -41 -2
-328 -102 -522 -183 -120 -49 -434 -201 -490 -237 -8 -5 -62 -37 -120 -71
-521 -308 -1014 -754 -1385 -1253 -378 -509 -652 -1089 -804 -1701 -30 -121
-66 -296 -76 -370 -3 -23 -7 -52 -10 -65 -7 -37 -15 -93 -20 -141 -3 -24 -7
-66 -10 -94 -14 -127 -17 -188 -19 -445 -4 -285 0 -363 30 -635 5 -45 14 -107
19 -135 3 -14 7 -43 10 -65 27 -196 119 -556 203 -797 122 -350 302 -713 509
-1031 70 -108 210 -304 271 -379 193 -238 460 -509 683 -693 110 -91 411 -315
423 -315 2 0 36 -22 77 -49 181 -118 456 -262 705 -367 170 -71 509 -188 609
-210 6 -1 30 -7 55 -14 25 -7 52 -13 60 -15 8 -2 33 -8 55 -13 22 -6 54 -13
70 -16 17 -3 105 -19 197 -35 183 -33 243 -40 458 -57 179 -15 821 -6 850 11
3 1 38 6 79 9 63 6 121 15 326 51 198 35 573 136 716 194 13 5 51 19 84 31 33
12 74 28 90 35 363 154 554 254 845 443 80 52 157 104 171 116 14 11 41 32 59
46 290 215 576 484 816 770 118 140 374 493 374 514 0 3 16 28 35 55 19 26 35
51 35 53 0 3 23 45 51 94 71 122 249 485 249 507 0 4 8 26 19 50 33 76 43 101
76 197 62 177 149 484 169 595 6 29 10 51 21 105 27 137 60 382 73 550 9 123
9 611 -1 715 -20 216 -20 214 -32 300 -18 130 -58 348 -82 440 -8 33 -16 67
-18 75 -13 62 -75 273 -115 390 -75 219 -247 602 -348 775 -16 28 -42 73 -57
100 -95 169 -332 502 -485 679 -174 202 -417 439 -596 582 -55 43 -101 81
-104 84 -52 52 -384 276 -560 377 -105 60 -406 209 -510 253 -30 13 -73 31
-95 40 -22 9 -69 27 -105 39 -36 13 -74 27 -85 31 -35 15 -292 95 -340 106 -5
1 -48 12 -94 23 -98 26 -300 68 -368 77 -27 3 -50 8 -53 9 -3 2 -37 6 -75 10
-39 4 -72 9 -75 10 -3 2 -48 6 -100 10 -52 4 -106 9 -120 12 -29 6 -626 14
-632 8z"/>
</g>
</svg>
